<svg width="120" height="120" viewBox="0 0 120 120" xmlns="http://www.w3.org/2000/svg">
  <defs>
    <linearGradient id="bgGrad" x1="0%" y1="0%" x2="100%" y2="100%">
      <stop offset="0%" stop-color="#F9F1EA"/>
      <stop offset="100%" stop-color="#F3E7DF"/>
    </linearGradient>
    <linearGradient id="leafGrad" x1="0%" y1="0%" x2="100%" y2="100%">
      <stop offset="0%" stop-color="#B8B390"/>
      <stop offset="100%" stop-color="#D8A59A"/>
    </linearGradient>
  </defs>
  <rect x="4" y="4" width="112" height="112" rx="56" fill="url(#bgGrad)" stroke="#C8B29F" stroke-width="4"/>
  <path d="M32 33C36 25 44 22 54 22C60 22 65 24 70 28" fill="none" stroke="#7A7B55" stroke-width="3" stroke-linecap="round"/>
  <path d="M90 32C86 24 78 21 68 21C62 21 57 23 52 27" fill="none" stroke="#7A7B55" stroke-width="3" stroke-linecap="round"/>
  <path d="M40 39C43 35 47 32 52 32C57 32 61 35 64 39" fill="none" stroke="#7A7B55" stroke-width="3" stroke-linecap="round"/>
  <path d="M72 39C75 35 79 32 84 32C89 32 93 35 96 39" fill="none" stroke="#7A7B55" stroke-width="3" stroke-linecap="round"/>
  <path d="M38 52C42 44 50 42 58 44C66 46 70 55 70 66" fill="none" stroke="#7A7B55" stroke-width="4" stroke-linecap="round"/>
  <path d="M82 52C78 44 70 42 62 44C54 46 50 55 50 66" fill="none" stroke="#7A7B55" stroke-width="4" stroke-linecap="round"/>
  <path d="M64 70C64 70 52 76 46 90" fill="none" stroke="#7A7B55" stroke-width="4" stroke-linecap="round"/>
  <path d="M56 70C56 70 68 76 74 90" fill="none" stroke="#7A7B55" stroke-width="4" stroke-linecap="round"/>
  <path d="M34 88C40 84 48 82 56 80" fill="none" stroke="#7A7B55" stroke-width="4" stroke-linecap="round"/>
  <path d="M86 88C80 84 72 82 64 80" fill="none" stroke="#7A7B55" stroke-width="4" stroke-linecap="round"/>
  <path d="M32 34C24 46 30 60 40 68" fill="none" stroke="url(#leafGrad)" stroke-width="6" stroke-linecap="round"/>
  <path d="M88 34C96 46 90 60 80 68" fill="none" stroke="url(#leafGrad)" stroke-width="6" stroke-linecap="round"/>
  <path d="M45 20C48 30 42 32 38 40" fill="none" stroke="#B78B5F" stroke-width="2" stroke-linecap="round"/>
  <path d="M72 20C69 30 75 32 79 40" fill="none" stroke="#B78B5F" stroke-width="2" stroke-linecap="round"/>
  <circle cx="44" cy="50" r="2.2" fill="#7A7B55"/>
  <circle cx="76" cy="50" r="2.2" fill="#7A7B55"/>
  <path d="M48 56C48 56 58 58 56 68" fill="none" stroke="#7A7B55" stroke-width="3" stroke-linecap="round"/>
  <path d="M72 56C72 56 62 58 64 68" fill="none" stroke="#7A7B55" stroke-width="3" stroke-linecap="round"/>
</svg>
